# xmcd
#
# Track frame offsets:
#	150
#	19183
#	35832
#	52662
#	68553
#	84517
#	97218
#	113820
#	133316
#	152208
#	169372
#	186928
#	203800
#	225834
#
# Disc length: 3239 seconds
#
# Revision: 0
# Processed by: cddbd v1.5.2PL0 Copyright (c) Steve Scherf et al.
# Submitted via: EasyCDDAExtractor 2010.4.0.0
#
DISCID=bc0ca50e
DTITLE=Colonia - Do kraja[The 8th Album]
DYEAR=2006
DGENRE=Pop
TTITLE0=Do Kraja
TTITLE1=Pogledom Me Skini
TTITLE2=Oči U Oči
TTITLE3=Tipično Muški
TTITLE4=Dvoje
TTITLE5=Fjaka
TTITLE6=Samo Da Si Tu
TTITLE7=Party On!
TTITLE8=Nedostaješ Mi
TTITLE9=Nisam Više Tvoja
TTITLE10=Svašta Mi Pada Na Pamet
TTITLE11=Devotion
TTITLE12=So Sexy (Eric's Magic Touch Rmx)
TTITLE13=Do Kraja (Pop Remix)
EXTD=
EXTT0=
EXTT1=
EXTT2=
EXTT3=
EXTT4=
EXTT5=
EXTT6=
EXTT7=
EXTT8=
EXTT9=
EXTT10=
EXTT11=
EXTT12=
EXTT13=
PLAYORDER=
